[Header]
FileType HTR
DataType HTRS
FileVersion 1
NumSegments 22
NumFrames 4
DataFrameRate 24
EulerRotationOrder ZYX
CalibrationUnits mm
RotationUnits Degrees
GlobalAxisofGravity Y
BoneLengthAxis Y
ScaleFactor 1.0
[SegmentNames&Hierarchy]
reference	GLOBAL
Hips	reference
Spine	Hips
Spine1	Spine
Neck	Spine1
Head	Neck
LeftShoulder	Spine1
LeftArm	LeftShoulder
LeftForeArm	LeftArm
LeftHand	LeftForeArm
RightShoulder	Spine1
RightArm	RightShoulder
RightForeArm	RightArm
RightHand	RightForeArm
LeftUpLeg	Hips
LeftLeg	LeftUpLeg
LeftFoot	LeftLeg
LeftToeBase	LeftFoot
RightUpLeg	Hips
RightLeg	RightUpLeg
RightFoot	RightLeg
RightToeBase	RightFoot
[BasePosition]
reference	0	0	0	0	0	0	1
Hips	0	0	0	0	0	0	1
Spine	0	0	0	0	-0	90	1
Spine1	0	0	0	0	0	0	1
Neck	0	0	0	-7.352327771	-7.352327771	90	1
Head	0	0	0	0	-0	90	1
LeftShoulder	0	0	0	0	0	0	1
LeftArm	0	0	0	0	0	0	1
LeftForeArm	0	0	0	0	0	0	1
LeftHand	0	0	0	0	0	0	1
RightShoulder	0	0	0	0	-0	180	1
RightArm	0	0	0	0	-0	180	1
RightForeArm	0	0	0	0	-0	180	1
RightHand	0	0	0	0	-0	180	1
LeftUpLeg	0	0	0	0	-0	-90	1
LeftLeg	0	0	0	0	-0	-90	1
LeftFoot	0	0	0	66.57146043	-66.57146043	-90	1
LeftToeBase	0	0	0	0	-90	0	1
RightUpLeg	0	0	0	0	-0	-90	1
RightLeg	0	0	0	0	-0	-90	1
RightFoot	0	0	0	66.57146043	-66.57146043	-90	1
RightToeBase	0	0	0	0	-90	0	1
[reference]
29	0	0	0	0	-0	0	1.0
30	0	0	0	0	-0	0	1.0
31	0	0	0	0	-0	0	1.0
32	0	0	0	0	-0	0	1.0
[Hips]
29	5.267472744	8.455439568	0.4100981951	-16.9420433	-101.6054153	20.77843666	1.0
30	5.009997368	8.450502396	0.4585645795	-18.30701828	-100.8107605	22.14069748	1.0
31	4.745549679	8.445257187	0.5183454156	-20.40036011	-100.5288162	24.07809448	1.0
32	4.474530697	8.439662933	0.5925123096	-20.31548691	-99.68390656	23.49186516	1.0
[Spine]
29	0	0.7457100153	0	-8.148084641	7.160436153	-88.65442657	1.0
30	0	0.7457100153	0	-8.549278259	7.696090698	-88.70185852	1.0
31	0	0.7457100153	0	-8.923408508	8.156944275	-88.2119751	1.0
32	0	0.7457100153	0	-9.294594765	8.124762535	-88.12680054	1.0
[Spine1]
29	0	2.140589952	0	11.05958557	2.149344683	2.121228456	1.0
30	0	2.140589952	0	10.93883228	2.316300869	2.289357901	1.0
31	0	2.140589952	0	10.72961712	2.490095377	1.974938512	1.0
32	0	2.140589952	0	10.62520695	2.515011311	1.482381225	1.0
[Neck]
29	0	2.32246995	0	-19.41719627	10.47827053	-91.7644577	1.0
30	0	2.32246995	0	-19.01072121	11.13818073	-92.1831131	1.0
31	0	2.32246995	0	-17.91530991	12.44478321	-92.04767609	1.0
32	0	2.32246995	0	-16.29226685	13.89280701	-92.11766052	1.0
[Head]
29	0	1.409579992	0.1818799973	-2.680755377	3.688964605	-92.04826355	1.0
30	0	1.409579992	0.1818799973	-2.148275852	4.428507805	-92.02612305	1.0
31	0	1.409579992	0.1818799973	-1.888873816	5.817435265	-92.49238586	1.0
32	0	1.409579992	0.1818799973	-1.865838885	7.311673641	-92.61753845	1.0
[LeftShoulder]
29	0.3668199778	1.946700096	-0.02662999928	-14.45583057	-12.80409336	-3.682724237	1.0
30	0.3668199778	1.946700096	-0.02662999928	-13.9128828	-12.9058094	-3.628992081	1.0
31	0.3668199778	1.946700096	-0.02662999928	-13.18195057	-12.68930531	-3.287227631	1.0
32	0.3668199778	1.946700096	-0.02662999928	-12.2062788	-12.26142502	-3.089296818	1.0
[LeftArm]
29	1.140689969	0	0	29.0674572	21.87443733	-71.9046402	1.0
30	1.140689969	0	0	27.74802208	22.93537903	-72.30947876	1.0
31	1.140689969	0	0	26.33586884	23.863554	-72.90713501	1.0
32	1.140689969	0	0	25.47709846	24.00640869	-73.21265411	1.0
[LeftForeArm]
29	2.749800205	0	0	-15.99926376	-9.935624123	-0.5650845766	1.0
30	2.749800205	0	0	-15.57087612	-9.191761017	-1.354505897	1.0
31	2.749800205	0	0	-14.82596397	-8.82259655	-2.080871344	1.0
32	2.749800205	0	0	-13.9382925	-8.418369293	-3.071676493	1.0
[LeftHand]
29	2.295179844	0	0	-16.06275558	-3.159500599	0.519307971	1.0
30	2.295179844	0	0	-15.68682957	-2.575027466	0.3146434426	1.0
31	2.295179844	0	0	-14.9841547	-2.192141056	-0.1225979403	1.0
32	2.295179844	0	0	-14.15028667	-2.02208662	-0.8014018536	1.0
[RightShoulder]
29	-0.3601199985	1.946700096	-0.02662999928	-7.267323494	6.019170284	176.6946411	1.0
30	-0.3601199985	1.946700096	-0.02662999928	-7.439556122	5.632594109	176.1219177	1.0
31	-0.3601199985	1.946700096	-0.02662999928	-7.487297058	5.565768242	176.133728	1.0
32	-0.3601199985	1.946700096	-0.02662999928	-7.540367603	5.255154133	175.7928162	1.0
[RightArm]
29	-1.140689969	0	0	51.85765076	7.611430645	-104.6713638	1.0
30	-1.140689969	0	0	52.10311127	7.166521549	-103.9697266	1.0
31	-1.140689969	0	0	52.43541336	6.580851078	-103.6139755	1.0
32	-1.140689969	0	0	52.22814178	5.901813507	-102.7378235	1.0
[RightForeArm]
29	-2.749800205	0	0	-0.498151958	16.20143318	176.289032	1.0
30	-2.749800205	0	0	-1.115722656	16.65603447	175.5325012	1.0
31	-2.749800205	0	0	-1.212017059	17.04975128	175.2829895	1.0
32	-2.749800205	0	0	-0.7819231749	17.01016235	175.747757	1.0
[RightHand]
29	-2.295179844	0	0	-0.6233973503	8.131608009	170.8330994	1.0
30	-2.295179844	0	0	-1.140809774	8.228385925	170.57901	1.0
31	-2.295179844	0	0	-1.17515707	8.49225235	170.9913025	1.0
32	-2.295179844	0	0	-0.8032107353	8.805244446	171.4800568	1.0
[LeftUpLeg]
29	0.9094099998	0	0	-14.85770798	2.453480721	92.18787384	1.0
30	0.9094099998	0	0	-12.30549049	1.738133907	91.73059082	1.0
31	0.9094099998	0	0	-9.651200294	4.161593437	90.39746857	1.0
32	0.9094099998	0	0	-6.627860069	5.175149918	89.03896332	1.0
[LeftLeg]
29	0	-4.498080254	0	9.361901283	-0.9062756896	85.63076782	1.0
30	0	-4.498080254	0	7.356856346	-1.347954631	85.11717224	1.0
31	0	-4.498080254	0	5.766811848	-2.278834343	86.08782959	1.0
32	0	-4.498080254	0	3.987171888	-3.324834585	86.49369812	1.0
[LeftFoot]
29	0	-3.729400158	0	-74.54482269	121.1728668	-24.14122009	1.0
30	0	-3.729400158	0	-74.42150879	121.914978	-23.98587608	1.0
31	0	-3.729400158	0	-78.0031662	121.1992264	-27.55015373	1.0
32	0	-3.729400158	0	-80.17602539	120.6443253	-29.39611053	1.0
[LeftToeBase]
29	0	-0.5911099911	1.364109993	0	0	0	1.0
30	0	-0.5911099911	1.364109993	0	0	0	1.0
31	0	-0.5911099911	1.364109993	0	0	0	1.0
32	0	-0.5911099911	1.364109993	0	0	0	1.0
[RightUpLeg]
29	-0.9094099998	0	0	9.848391533	-16.24105453	93.68662262	1.0
30	-0.9094099998	0	0	9.946071625	-17.41337585	92.59682465	1.0
31	-0.9094099998	0	0	9.559628487	-19.1894989	91.4462738	1.0
32	-0.9094099998	0	0	8.572635651	-22.20775604	89.47005463	1.0
[RightLeg]
29	0	-4.498080254	0	10.28863144	-5.978956699	86.59017944	1.0
30	0	-4.498080254	0	13.2763319	-6.169956684	85.06147003	1.0
31	0	-4.498080254	0	17.6670723	-6.222150326	82.753479	1.0
32	0	-4.498080254	0	23.6204834	-6.707901001	78.74906921	1.0
[RightFoot]
29	0	-3.729400158	0	62.51342392	59.10767746	112.2592621	1.0
30	0	-3.729400158	0	70.31716156	55.69193268	116.9431992	1.0
31	0	-3.729400158	0	78.81481934	51.41847229	122.4035034	1.0
32	0	-3.729400158	0	90.25563049	46.58490372	130.414444	1.0
[RightToeBase]
29	0	-0.5911099911	1.364109993	0	0	0	1.0
30	0	-0.5911099911	1.364109993	0	0	0	1.0
31	0	-0.5911099911	1.364109993	0	0	0	1.0
32	0	-0.5911099911	1.364109993	0	0	0	1.0
[EndOfFile]
